<svg width="34" height="34" viewBox="0 0 34 34" fill="none" xmlns="http://www.w3.org/2000/svg">
<g filter="url(#filter0_d)">
<path d="M19.4496 12.5085L28.4079 3.57102C28.8002 3.17873 29.0206 2.64665 29.0206 2.09186C29.0206 1.53706 28.8002 1.00499 28.4079 0.612691C28.0156 0.220392 27.4835 0 26.9287 0C26.374 0 25.8419 0.220392 25.4496 0.612691L16.5121 9.57102L7.57458 0.612691C7.18228 0.220392 6.65021 -4.13354e-09 6.09541 0C5.54062 4.13355e-09 5.00855 0.220392 4.61625 0.612691C4.22395 1.00499 4.00356 1.53706 4.00356 2.09186C4.00356 2.64665 4.22395 3.17873 4.61625 3.57102L13.5746 12.5085L4.61625 21.446C4.42098 21.6397 4.26599 21.8701 4.16022 22.124C4.05446 22.3779 4 22.6502 4 22.9252C4 23.2002 4.05446 23.4725 4.16022 23.7264C4.26599 23.9803 4.42098 24.2107 4.61625 24.4044C4.80992 24.5996 5.04034 24.7546 5.29421 24.8604C5.54809 24.9662 5.82039 25.0206 6.09541 25.0206C6.37044 25.0206 6.64274 24.9662 6.89662 24.8604C7.15049 24.7546 7.38091 24.5996 7.57458 24.4044L16.5121 15.446L25.4496 24.4044C25.6433 24.5996 25.8737 24.7546 26.1275 24.8604C26.3814 24.9662 26.6537 25.0206 26.9287 25.0206C27.2038 25.0206 27.4761 24.9662 27.7299 24.8604C27.9838 24.7546 28.2142 24.5996 28.4079 24.4044C28.6032 24.2107 28.7582 23.9803 28.8639 23.7264C28.9697 23.4725 29.0242 23.2002 29.0242 22.9252C29.0242 22.6502 28.9697 22.3779 28.8639 22.124C28.7582 21.8701 28.6032 21.6397 28.4079 21.446L19.4496 12.5085Z" fill="#002E48"/>
</g>
<defs>
<filter id="filter0_d" x="0" y="0" width="33.0242" height="33.0206" filterUnits="userSpaceOnUse" color-interpolation-filters="sRGB">
<feFlood flood-opacity="0" result="BackgroundImageFix"/>
<feColorMatrix in="SourceAlpha" type="matrix" values="0 0 0 0 0 0 0 0 0 0 0 0 0 0 0 0 0 0 127 0"/>
<feOffset dy="4"/>
<feGaussianBlur stdDeviation="2"/>
<feColorMatrix type="matrix" values="0 0 0 0 0 0 0 0 0 0 0 0 0 0 0 0 0 0 0.5 0"/>
<feBlend mode="normal" in2="BackgroundImageFix" result="effect1_dropShadow"/>
<feBlend mode="normal" in="SourceGraphic" in2="effect1_dropShadow" result="shape"/>
</filter>
</defs>
</svg>
