<svg width="28" height="28" viewBox="0 0 28 28" fill="none" xmlns="http://www.w3.org/2000/svg">
<path d="M27.433 16.697V16.597H27.333H21.7057V4.01519C21.7057 3.01219 21.3073 2.05027 20.5981 1.34104C19.8888 0.631815 18.9269 0.233374 17.9239 0.233374H4.01483C3.01183 0.233374 2.04991 0.631815 1.34068 1.34104C0.631449 2.05027 0.233008 3.01219 0.233008 4.01519V22.0152C0.233008 23.4522 0.80385 24.8303 1.81996 25.8464C2.83606 26.8625 4.2142 27.4334 5.65119 27.4334H22.0148C23.4518 27.4334 24.83 26.8625 25.8461 25.8464C26.8622 24.8303 27.433 23.4522 27.433 22.0152V16.697ZM22.0148 24.7788H21.7057V19.2516H24.7785V22.0152C24.7785 22.7482 24.4873 23.4511 23.969 23.9694C23.4507 24.4877 22.7478 24.7788 22.0148 24.7788ZM19.0512 4.01519V24.7788H5.65119C4.12569 24.7788 2.88755 23.5407 2.88755 22.0152V4.01519C2.88755 3.71622 3.00632 3.42949 3.21772 3.21809C3.42913 3.00669 3.71585 2.88792 4.01483 2.88792H17.9239C18.2229 2.88792 18.5096 3.00669 18.721 3.21809C18.9324 3.4295 19.0512 3.71622 19.0512 4.01519ZM5.53085 7.16758C5.28194 7.41649 5.1421 7.75409 5.1421 8.1061C5.1421 8.45812 5.28194 8.79571 5.53085 9.04463C5.77976 9.29354 6.11736 9.43338 6.46937 9.43338H15.4694C15.8214 9.43338 16.159 9.29354 16.4079 9.04463C16.6568 8.79571 16.7966 8.45812 16.7966 8.1061C16.7966 7.75409 16.6568 7.41649 16.4079 7.16758C16.159 6.91867 15.8214 6.77883 15.4694 6.77883H6.46937C6.11736 6.77883 5.77976 6.91867 5.53085 7.16758ZM5.53085 12.8949C5.28194 13.1438 5.1421 13.4814 5.1421 13.8334C5.1421 14.1854 5.28194 14.523 5.53085 14.7719C5.77976 15.0208 6.11736 15.1606 6.46937 15.1606H15.4694C15.8214 15.1606 16.159 15.0208 16.4079 14.7719C16.6568 14.523 16.7966 14.1854 16.7966 13.8334C16.7966 13.4814 16.6568 13.1438 16.4079 12.8949C16.159 12.6459 15.8214 12.5061 15.4694 12.5061H6.46937C6.11736 12.5061 5.77976 12.6459 5.53085 12.8949ZM5.53085 18.6221C5.28194 18.871 5.1421 19.2086 5.1421 19.5606C5.1421 19.9127 5.28194 20.2503 5.53085 20.4992C5.77976 20.7481 6.11736 20.8879 6.46937 20.8879H10.5603C10.9123 20.8879 11.2499 20.7481 11.4988 20.4992C11.7477 20.2503 11.8876 19.9127 11.8876 19.5606C11.8876 19.2086 11.7477 18.871 11.4988 18.6221C11.2499 18.3732 10.9123 18.2334 10.5603 18.2334H6.46937C6.11736 18.2334 5.77976 18.3732 5.53085 18.6221Z" fill="#004972" stroke="#004972" stroke-width="0.2"/>
</svg>
