<svg width="200" height="25" viewBox="0 0 200 25" fill="none" xmlns="http://www.w3.org/2000/svg">
<path d="M100 2.52363e-06C103.315 2.52363e-06 104 1.0153e-05 107 1.0153e-05C108.5 -5.10577e-06 109 9.19346e-07 110.5 2.52363e-06H112.5H187.5C190.815 2.52363e-06 193.995 1.31697 196.339 3.66117C198.683 6.00538 200 9.18479 200 12.5C200 15.8152 198.683 18.9946 196.339 21.3388C193.995 23.683 190.815 25 187.5 25H112.5L105 25C105 25 100.5 25 100 25C100 25 99.3152 25 96 25C92.6848 25 93.2642 25 91.5 25C90 25 90 25 88.5 25H87.5H12.5C9.18479 25 6.00537 23.683 3.66117 21.3388C1.31696 18.9946 0 15.8152 0 12.5C0 9.18479 1.31696 6.00538 3.66117 3.66117C6.00537 1.31697 9.18479 2.52363e-06 12.5 2.52363e-06H87.5H90C91 2.52363e-06 92 2.52363e-06 93 2.52363e-06C95.5 2.52363e-06 96.6848 2.52363e-06 100 2.52363e-06Z" fill="black"/>
</svg>
