<svg width="200" height="200" viewBox="0 0 200 200" fill="none" xmlns="http://www.w3.org/2000/svg">
<path d="M100 0C103.315 0 106.495 1.31696 108.839 3.66117C111.183 6.00537 112.5 9.18479 112.5 12.5V87.5H187.5C190.815 87.5 193.995 88.817 196.339 91.1612C198.683 93.5054 200 96.6848 200 100C200 103.315 198.683 106.495 196.339 108.839C193.995 111.183 190.815 112.5 187.5 112.5H112.5V187.5C112.5 190.815 111.183 193.995 108.839 196.339C106.495 198.683 103.315 200 100 200C96.6848 200 93.5054 198.683 91.1612 196.339C88.817 193.995 87.5 190.815 87.5 187.5V112.5H12.5C9.18479 112.5 6.00537 111.183 3.66117 108.839C1.31696 106.495 0 103.315 0 100C0 96.6848 1.31696 93.5054 3.66117 91.1612C6.00537 88.817 9.18479 87.5 12.5 87.5H87.5V12.5C87.5 9.18479 88.817 6.00537 91.1612 3.66117C93.5054 1.31696 96.6848 0 100 0V0Z" fill="black"/>
</svg>
