<svg width="40" height="38" viewBox="0 0 40 38" fill="none" xmlns="http://www.w3.org/2000/svg">
<path d="M38.4216 26.9477H11.8694L13.2025 24.1415L35.3539 24.1C36.103 24.1 36.7451 23.5471 36.8788 22.7822L39.9465 5.03721C40.0268 4.57182 39.9064 4.0926 39.6121 3.72857C39.4666 3.54942 39.2852 3.40511 39.0804 3.30565C38.8756 3.20619 38.6523 3.15396 38.426 3.15259L10.2464 3.05582L10.0056 1.88542C9.85398 1.13894 9.20299 0.595215 8.46283 0.595215H1.57396C1.15652 0.595215 0.756177 0.766586 0.461002 1.07163C0.165828 1.37667 0 1.7904 0 2.2218C0 2.65319 0.165828 3.06692 0.461002 3.37196C0.756177 3.67701 1.15652 3.84838 1.57396 3.84838H7.18761L8.23988 9.01842L10.8305 21.9804L7.49526 27.6066C7.32206 27.8482 7.21774 28.1351 7.1941 28.4347C7.17046 28.7344 7.22845 29.0349 7.3615 29.3023C7.62903 29.8507 8.16854 30.1963 8.76602 30.1963H11.5662C10.9692 31.0156 10.6468 32.0137 10.6476 33.0393C10.6476 35.6474 12.6987 37.767 15.2224 37.767C17.7461 37.767 19.7971 35.6474 19.7971 33.0393C19.7971 32.0118 19.4672 31.0118 18.8786 30.1963H26.0618C25.4648 31.0156 25.1424 32.0137 25.1432 33.0393C25.1432 35.6474 27.1943 37.767 29.718 37.767C32.2417 37.767 34.2927 35.6474 34.2927 33.0393C34.2927 32.0118 33.9628 31.0118 33.3742 30.1963H38.426C39.2911 30.1963 40 29.4682 40 28.5697C39.9974 28.1387 39.83 27.7263 39.5343 27.4225C39.2386 27.1186 38.8386 26.9479 38.4216 26.9477ZM10.9018 6.26291L36.5756 6.35046L34.0609 20.9022L13.8937 20.939L10.9018 6.26291ZM15.2224 34.4954C14.4466 34.4954 13.8134 33.8411 13.8134 33.0393C13.8134 32.2375 14.4466 31.5832 15.2224 31.5832C15.9982 31.5832 16.6314 32.2375 16.6314 33.0393C16.6314 33.4255 16.4829 33.7959 16.2187 34.0689C15.9545 34.342 15.5961 34.4954 15.2224 34.4954ZM29.718 34.4954C28.9421 34.4954 28.309 33.8411 28.309 33.0393C28.309 32.2375 28.9421 31.5832 29.718 31.5832C30.4938 31.5832 31.127 32.2375 31.127 33.0393C31.127 33.4255 30.9785 33.7959 30.7143 34.0689C30.45 34.342 30.0917 34.4954 29.718 34.4954Z" fill="#002E48"/>
</svg>
